# xmcd
#
# Track frame offsets:
#	150
#	15713
#	30171
#	45312
#	58786
#	74775
#	91909
#	113066
#	134111
#	145960
#	163037
#	175255
#
# Disc length: 2554 seconds
#
# Revision: 1
# Processed by: cddbd v1.5.1PL2 Copyright (c) Steve Scherf et al.
# Submitted via: audiograbber 1.83.01
#
DISCID=a609f80c
DTITLE=Darryl Lee Rush - Llano Ave.
DYEAR=1900
DGENRE=
TTITLE0=Trulane
TTITLE1=Miles To Memphis
TTITLE2=Town Too Tough To Die
TTITLE3=White Trash Paradise
TTITLE4=Lorraine
TTITLE5=Llano Ave.
TTITLE6=Diary of a Dance
TTITLE7=Prodigal Daughter
TTITLE8=How Long
TTITLE9=I Believe in the Sun
TTITLE10=Queenie's Song
TTITLE11=Life in the Fast Lane
EXTD=
EXTT0=
EXTT1=
EXTT2=
EXTT3=
EXTT4=
EXTT5=
EXTT6=
EXTT7=
EXTT8=
EXTT9=
EXTT10=
EXTT11=
PLAYORDER=
